<svg id="glyph-defs" xmlns="http://www.w3.org/2000/svg" width="0" height="0" aria-hidden="true" focusable="false" style="position:absolute;width:0;height:0;overflow:hidden">
<defs>
<linearGradient id="ink-good" gradientUnits="userSpaceOnUse" x1="0" y1="0" x2="0" y2="100"><stop offset="0" stop-color="#6ea8f0"/><stop offset=".55" stop-color="#1f5fbf"/><stop offset="1" stop-color="#0c2e6b"/></linearGradient>
<linearGradient id="ink-evil" gradientUnits="userSpaceOnUse" x1="0" y1="0" x2="0" y2="100"><stop offset="0" stop-color="#f0604f"/><stop offset=".55" stop-color="#b8140e"/><stop offset="1" stop-color="#5a0705"/></linearGradient>
<linearGradient id="ink-traveller" gradientUnits="userSpaceOnUse" x1="0" y1="0" x2="100" y2="0"><stop offset="0" stop-color="#3f7fdc"/><stop offset=".5" stop-color="#16489a"/><stop offset=".5" stop-color="#c0231b"/><stop offset="1" stop-color="#e2554a"/></linearGradient>
<linearGradient id="ink-fabled" gradientUnits="userSpaceOnUse" x1="0" y1="0" x2="0" y2="100"><stop offset="0" stop-color="#ffe08a"/><stop offset=".55" stop-color="#d49a12"/><stop offset="1" stop-color="#7a5204"/></linearGradient>
<radialGradient id="parchment" cx=".45" cy=".4" r=".65"><stop offset="0" stop-color="#f6ecd2"/><stop offset=".75" stop-color="#e6d3aa"/><stop offset="1" stop-color="#c9ae7c"/></radialGradient>
<filter id="glyph-shadow" x="-20%" y="-20%" width="140%" height="140%"><feDropShadow dx="0.8" dy="1.8" stdDeviation="1.4" flood-color="#000" flood-opacity=".45"/></filter>
<filter id="paper-grain" x="0" y="0" width="100%" height="100%"><feTurbulence type="fractalNoise" baseFrequency=".9" numOctaves="2" seed="7"/><feColorMatrix values="0 0 0 0 .35  0 0 0 0 .25  0 0 0 0 .12  0 0 0 .5 0"/><feComposite in2="SourceGraphic" operator="in"/></filter>
<symbol id="g-eye" viewBox="0 0 100 100"><path d="M6 50 Q50 10 94 50 Q50 90 6 50Z" fill="#fbf3dc"/><circle cx="50" cy="50" r="18"/><circle cx="50" cy="50" r="8" fill="#1b0f0a"/><circle cx="45" cy="45" r="3" fill="#fbf3dc" stroke="none"/></symbol>
<symbol id="g-skull" viewBox="0 0 100 100"><path d="M50 10C27 10 15 27 15 46C15 58 21 65 28 69V80H72V69C79 65 85 58 85 46C85 27 73 10 50 10Z"/><rect x="34" y="78" width="32" height="13" rx="3"/><circle cx="36" cy="47" r="9" fill="#1b0f0a"/><circle cx="64" cy="47" r="9" fill="#1b0f0a"/><path d="M50 56L44 67H56Z" fill="#1b0f0a"/><path d="M42 80V90M50 80V91M58 80V90" fill="none" stroke="#1b0f0a" stroke-width="2.5" stroke-linecap="round"/></symbol>
<symbol id="g-dagger" viewBox="0 0 100 100"><path d="M50 4L59 20L56 62H44L41 20Z"/><rect x="26" y="62" width="48" height="8" rx="3"/><rect x="45" y="70" width="10" height="17" rx="2"/><circle cx="50" cy="91" r="6"/><path d="M50 12V58" fill="none" stroke="#fbf3dc" stroke-width="1.5" stroke-linecap="round"/></symbol>
<symbol id="g-key" viewBox="0 0 100 100"><path fill-rule="evenodd" d="M33 24a17 17 0 1 0 34 0a17 17 0 1 0 -34 0Z M42 24a8 8 0 1 1 16 0a8 8 0 1 1 -16 0Z"/><rect x="45" y="40" width="10" height="52" rx="2"/><rect x="55" y="70" width="13" height="7"/><rect x="55" y="83" width="18" height="7"/></symbol>
<symbol id="g-candle" viewBox="0 0 100 100"><path d="M50 6C61 19 60 31 50 37C40 31 39 19 50 6Z"/><path d="M50 18C55 25 54 30 50 33C46 30 45 25 50 18Z" fill="#fbf3dc" stroke="none"/><path d="M50 37V43" fill="none" stroke="#1b0f0a" stroke-width="2.5" stroke-linecap="round"/><path d="M37 43H63V86H37Z"/><path d="M37 43H48V52Q45 58 42 52V48H37Z" fill="#fbf3dc" stroke="none" opacity=".55"/><ellipse cx="50" cy="88" rx="28" ry="6"/></symbol>
<symbol id="g-moon" viewBox="0 0 100 100"><path d="M60 8A42 42 0 1 0 92 70A34 34 0 1 1 60 8Z"/><polygon points="78.0,16.0 80.1,21.2 85.6,21.5 81.3,25.1 82.7,30.5 78.0,27.5 73.3,30.5 74.7,25.1 70.4,21.5 75.9,21.2"/><polygon points="84.0,41.0 85.3,44.2 88.8,44.5 86.1,46.7 86.9,50.0 84.0,48.2 81.1,50.0 81.9,46.7 79.2,44.5 82.7,44.2"/></symbol>
<symbol id="g-rose" viewBox="0 0 100 100"><path d="M48 54C46 66 52 78 48 94" fill="none" stroke="#1b0f0a" stroke-width="7" stroke-linecap="round"/><path d="M48 54C46 66 52 78 48 94" fill="none" stroke="#fbf3dc" stroke-width="2" stroke-linecap="round"/><path d="M50 72C62 62 76 64 80 70C70 78 58 78 50 72Z"/><path d="M48 80C38 72 24 74 20 80C30 88 42 86 48 80Z"/><path d="M50 8C66 8 76 20 74 34C72 48 62 56 50 56C38 56 28 48 26 34C24 20 34 8 50 8Z"/><path d="M50 22C58 22 62 28 60 34C58 40 48 42 44 36C40 30 46 26 52 28" fill="none" stroke="#1b0f0a" stroke-width="2.5" stroke-linecap="round"/><path d="M32 30C34 44 44 50 56 48" fill="none" stroke="#1b0f0a" stroke-width="2" stroke-linecap="round"/></symbol>
<symbol id="g-crown" viewBox="0 0 100 100"><path d="M12 72L16 26L34 50L50 16L66 50L84 26L88 72Z"/><rect x="12" y="72" width="76" height="14" rx="3"/><circle cx="16" cy="24" r="5" fill="#fbf3dc"/><circle cx="50" cy="14" r="5" fill="#fbf3dc"/><circle cx="84" cy="24" r="5" fill="#fbf3dc"/><circle cx="50" cy="79" r="4" fill="#fbf3dc"/><circle cx="30" cy="79" r="3" fill="#fbf3dc"/><circle cx="70" cy="79" r="3" fill="#fbf3dc"/></symbol>
<symbol id="g-chalice" viewBox="0 0 100 100"><path d="M24 12H76C76 42 64 56 50 56C36 56 24 42 24 12Z"/><path d="M30 18H70C69 28 66 34 62 38H38C34 34 31 28 30 18Z" fill="#fbf3dc" stroke="none" opacity=".35"/><rect x="45" y="56" width="10" height="22"/><path d="M28 92C28 80 40 76 50 76C60 76 72 80 72 92Z"/></symbol>
<symbol id="g-quill" viewBox="0 0 100 100"><path d="M84 6C52 12 26 38 22 88C28 84 32 78 36 72C60 60 80 38 84 6Z"/><path d="M82 9C60 30 40 54 20 94" fill="none" stroke="#1b0f0a" stroke-width="2.5" stroke-linecap="round"/><path d="M66 24L56 22M58 36L46 34M50 48L38 48M42 60L32 62" fill="none" stroke="#fbf3dc" stroke-width="1.5" stroke-linecap="round"/></symbol>
<symbol id="g-bell" viewBox="0 0 100 100"><path d="M50 10C46 10 44 13 44 16C30 20 25 34 25 50V66L15 78H85L75 66V50C75 34 70 20 56 16C56 13 54 10 50 10Z"/><circle cx="50" cy="85" r="7"/><path d="M34 50C34 36 38 28 44 25" fill="none" stroke="#fbf3dc" stroke-width="2.5" stroke-linecap="round"/></symbol>
<symbol id="g-flame" viewBox="0 0 100 100"><path d="M50 4C62 24 80 34 78 60C76 80 64 94 50 94C36 94 24 80 22 60C21 44 34 34 36 20C44 32 44 38 50 42C55 30 51 16 50 4Z"/><path d="M50 50C58 60 64 66 62 76C60 84 56 88 50 88C44 88 40 84 38 76C37 68 44 64 46 56C48 62 50 60 50 50Z" fill="#fbf3dc"/></symbol>
<symbol id="g-spider" viewBox="0 0 100 100"><path d="M44 46L24 30L16 12M44 52L20 48L8 36M44 58L20 66L12 82M46 62L30 80L28 96M56 46L76 30L84 12M56 52L80 48L92 36M56 58L80 66L88 82M54 62L70 80L72 96" fill="none" stroke="#1b0f0a" stroke-width="4" stroke-linecap="round"/><ellipse cx="50" cy="68" rx="15" ry="19"/><circle cx="50" cy="42" r="10"/><path d="M50 58L44 66L50 74L56 66Z" fill="#fbf3dc"/></symbol>
<symbol id="g-hourglass" viewBox="0 0 100 100"><path d="M30 16H70C70 36 56 44 56 50C56 56 70 64 70 84H30C30 64 44 56 44 50C44 44 30 36 30 16Z" fill="#fbf3dc"/><path d="M37 26H63C61 35 53 42 50 46C47 42 39 35 37 26Z"/><path d="M34 82C38 71 45 66 50 64C55 66 62 71 66 82Z"/><path d="M50 46V64" fill="none" stroke="#1b0f0a" stroke-width="1.5" stroke-linecap="round"/><rect x="20" y="8" width="60" height="9" rx="2"/><rect x="20" y="83" width="60" height="9" rx="2"/></symbol>
<symbol id="g-book" viewBox="0 0 100 100"><path d="M8 24C22 16 40 16 50 26C60 16 78 16 92 24V82C78 74 60 74 50 84C40 74 22 74 8 82Z"/><path d="M50 26V84" fill="none" stroke="#1b0f0a" stroke-width="2.5" stroke-linecap="round"/><path d="M18 36C26 32 36 32 42 36M18 48C26 44 36 44 42 48M18 60C26 56 36 56 42 60M58 36C64 32 74 32 82 36M58 48C64 44 74 44 82 48M58 60C64 56 74 56 82 60" fill="none" stroke="#fbf3dc" stroke-width="2" stroke-linecap="round"/></symbol>
<symbol id="g-scales" viewBox="0 0 100 100"><path d="M20 28L10 60M20 28L30 60M80 28L70 60M80 28L90 60" fill="none" stroke="#1b0f0a" stroke-width="1.8" stroke-linecap="round"/><rect x="46" y="18" width="8" height="66"/><rect x="28" y="84" width="44" height="9" rx="3"/><rect x="12" y="22" width="76" height="7" rx="3"/><circle cx="50" cy="14" r="6"/><path d="M6 60H34C32 72 8 72 6 60Z"/><path d="M66 60H94C92 72 68 72 66 60Z"/></symbol>
<symbol id="g-mask" viewBox="0 0 100 100"><path d="M6 34C28 24 72 24 94 34C94 60 78 74 62 66C57 62 43 62 38 66C22 74 6 60 6 34Z"/><path d="M22 44C28 38 38 38 44 46C38 52 28 52 22 44Z" fill="#1b0f0a"/><path d="M78 44C72 38 62 38 56 46C62 52 72 52 78 44Z" fill="#1b0f0a"/><path d="M20 34C30 30 40 30 46 32" fill="none" stroke="#fbf3dc" stroke-width="2" stroke-linecap="round"/></symbol>
<symbol id="g-lantern" viewBox="0 0 100 100"><path d="M40 13A10 10 0 0 1 60 13" fill="none" stroke="#1b0f0a" stroke-width="3"/><path d="M34 12H66L72 24H28Z"/><rect x="32" y="24" width="36" height="52" fill="#fbf3dc"/><path d="M50 36C58 46 58 56 50 62C42 56 42 46 50 36Z"/><path d="M32 24V76M68 24V76M50 24V32M50 66V76" fill="none" stroke="#1b0f0a" stroke-width="4" stroke-linecap="round"/><path d="M26 76H74L68 88H32Z"/></symbol>
<symbol id="g-sun" viewBox="0 0 100 100"><path d="M44.3 24.6L50.0 4.0L55.7 24.6Z M57.8 25.2L73.0 10.2L67.6 30.9Z M69.1 32.4L89.8 27.0L74.8 42.2Z M75.4 44.3L96.0 50.0L75.4 55.7Z M74.8 57.8L89.8 73.0L69.1 67.6Z M67.6 69.1L73.0 89.8L57.8 74.8Z M55.7 75.4L50.0 96.0L44.3 75.4Z M42.2 74.8L27.0 89.8L32.4 69.1Z M30.9 67.6L10.2 73.0L25.2 57.8Z M24.6 55.7L4.0 50.0L24.6 44.3Z M25.2 42.2L10.2 27.0L30.9 32.4Z M32.4 30.9L27.0 10.2L42.2 25.2Z"/><circle cx="50" cy="50" r="24"/><circle cx="42" cy="46" r="3" fill="#1b0f0a" stroke="none"/><circle cx="58" cy="46" r="3" fill="#1b0f0a" stroke="none"/><path d="M41 58Q50 64 59 58" fill="none" stroke="#1b0f0a" stroke-width="2.5" stroke-linecap="round"/></symbol>
<symbol id="g-star" viewBox="0 0 100 100"><polygon points="50.0,6.0 61.2,36.6 93.7,37.8 68.1,57.9 77.0,89.2 50.0,71.0 23.0,89.2 31.9,57.9 6.3,37.8 38.8,36.6"/><polygon points="50.0,36.0 54.1,46.3 65.2,47.1 56.7,54.2 59.4,64.9 50.0,59.0 40.6,64.9 43.3,54.2 34.8,47.1 45.9,46.3" fill="#fbf3dc" stroke="none"/></symbol>
<symbol id="g-shield" viewBox="0 0 100 100"><path d="M50 6L88 18C88 56 74 80 50 94C26 80 12 56 12 18Z"/><path d="M50 16L78 25C77 54 67 72 50 84Z" fill="#fbf3dc" stroke="none" opacity=".35"/><path d="M50 22V80M28 42H72" fill="none" stroke="#1b0f0a" stroke-width="3.5" stroke-linecap="round"/></symbol>
<symbol id="g-heart" viewBox="0 0 100 100"><path d="M50 90C20 68 6 52 6 34C6 20 17 10 30 10C40 10 46 16 50 24C54 16 60 10 70 10C83 10 94 20 94 34C94 52 80 68 50 90Z"/><path d="M26 22C20 24 16 30 17 38" fill="none" stroke="#fbf3dc" stroke-width="4" stroke-linecap="round"/></symbol>
<symbol id="g-horns" viewBox="0 0 100 100"><path d="M22 92C8 62 12 28 34 6C28 34 32 54 46 70C40 76 32 84 22 92Z"/><path d="M78 92C92 62 88 28 66 6C72 34 68 54 54 70C60 76 68 84 78 92Z"/><path d="M26 70C22 54 24 36 30 22M74 70C78 54 76 36 70 22" fill="none" stroke="#fbf3dc" stroke-width="2" stroke-linecap="round"/></symbol>
<symbol id="g-tower" viewBox="0 0 100 100"><path d="M50 4L70 30H30Z"/><rect x="32" y="30" width="36" height="62"/><rect x="24" y="88" width="52" height="8" rx="2"/><circle cx="50" cy="48" r="12" fill="#fbf3dc"/><path d="M50 48V40M50 48L56 51" fill="none" stroke="#1b0f0a" stroke-width="2.5" stroke-linecap="round"/><path d="M44 92V76A6 6 0 0 1 56 76V92Z" fill="#1b0f0a"/></symbol>
<symbol id="g-drop" viewBox="0 0 100 100"><path d="M50 6C64 34 80 48 80 66C80 82 67 94 50 94C33 94 20 82 20 66C20 48 36 34 50 6Z"/><path d="M34 64C34 74 40 80 46 82" fill="none" stroke="#fbf3dc" stroke-width="4" stroke-linecap="round"/></symbol>
<symbol id="g-potion" viewBox="0 0 100 100"><rect x="40" y="6" width="20" height="10" rx="2"/><path d="M42 16H58V34C74 40 84 52 84 66C84 82 70 94 50 94C30 94 16 82 16 66C16 52 26 40 42 34Z"/><path d="M22 66H78C78 80 66 88 50 88C34 88 22 80 22 66Z" fill="#fbf3dc" stroke="none" opacity=".4"/><circle cx="36" cy="54" r="4" fill="#fbf3dc" stroke="none"/></symbol>
<symbol id="g-coin" viewBox="0 0 100 100"><circle cx="50" cy="50" r="42"/><circle cx="50" cy="50" r="33" fill="none" stroke="#1b0f0a" stroke-width="2"/><polygon points="50.0,31.0 54.7,44.5 69.0,44.8 57.6,53.5 61.8,67.2 50.0,59.0 38.2,67.2 42.4,53.5 31.0,44.8 45.3,44.5" fill="#fbf3dc"/></symbol>
<symbol id="g-raven" viewBox="0 0 100 100"><path d="M10 58C24 44 40 40 52 42L70 30C78 26 86 28 90 34L80 36L74 44C76 56 70 70 56 76L66 92H58L50 78C40 80 30 78 22 74L4 82C8 72 12 66 20 62Z"/><circle cx="80" cy="33" r="2.5" fill="#fbf3dc" stroke="none"/><path d="M26 62C36 56 48 54 58 58" fill="none" stroke="#fbf3dc" stroke-width="2" stroke-linecap="round"/></symbol>
<symbol id="g-hand" viewBox="0 0 100 100"><path d="M30 92V54L20 40C17 36 22 30 27 34L34 42V14C34 9 42 9 42 14V40V8C42 3 50 3 50 8V40V10C50 5 58 5 58 10V42V18C58 13 66 13 66 18V60C66 78 60 86 58 92Z"/><circle cx="50" cy="66" r="7" fill="#1b0f0a"/><circle cx="50" cy="66" r="3" fill="#fbf3dc" stroke="none"/></symbol>
</defs>
</svg>
